<svg width="17" height="18" viewBox="0 0 17 18" fill="none" xmlns="http://www.w3.org/2000/svg">
<path d="M16.5844 0.832264C16.5061 0.753399 16.4131 0.690803 16.3105 0.648085C16.208 0.605367 16.098 0.583374 15.987 0.583374C15.8759 0.583374 15.7659 0.605367 15.6634 0.648085C15.5608 0.690803 15.4678 0.753399 15.3895 0.832264L10.198 6.02382C10.1191 6.10204 10.0565 6.1951 10.0138 6.29763C9.9711 6.40017 9.9491 6.51015 9.9491 6.62122C9.9491 6.7323 9.9711 6.84228 10.0138 6.94482C10.0565 7.04735 10.1191 7.14041 10.198 7.21863C10.2766 7.29662 10.3699 7.35831 10.4724 7.40019C10.5749 7.44206 10.6847 7.46328 10.7954 7.46264C10.9061 7.46328 11.0159 7.44206 11.1184 7.40019C11.2209 7.35831 11.3142 7.29662 11.3928 7.21863L16.5844 2.02708C16.6632 1.94886 16.7258 1.8558 16.7685 1.75326C16.8113 1.65073 16.8333 1.54075 16.8333 1.42967C16.8333 1.31859 16.8113 1.20862 16.7685 1.10608C16.7258 1.00355 16.6632 0.910485 16.5844 0.832264ZM6.63038 6.02382C6.47194 5.86538 6.25704 5.77636 6.03297 5.77636C5.8089 5.77636 5.59401 5.86538 5.43556 6.02382C5.27712 6.18226 5.18811 6.39715 5.18811 6.62122C5.18811 6.8453 5.27712 7.06019 5.43556 7.21863L10.198 11.9811C10.2766 12.059 10.3699 12.1207 10.4724 12.1626C10.5749 12.2045 10.6847 12.2257 10.7954 12.2251C10.9061 12.2257 11.0159 12.2045 11.1184 12.1626C11.2209 12.1207 11.3142 12.059 11.3928 11.9811C11.4717 11.9028 11.5343 11.8098 11.577 11.7072C11.6197 11.6047 11.6417 11.4947 11.6417 11.3837C11.6417 11.2726 11.6197 11.1626 11.577 11.0601C11.5343 10.9575 11.4717 10.8645 11.3928 10.7862L6.63038 6.02382ZM5.43556 10.7862L1.68284 14.5474V13.2095C1.68284 12.9864 1.59419 12.7724 1.43639 12.6146C1.27859 12.4568 1.06458 12.3681 0.841419 12.3681C0.618261 12.3681 0.404242 12.4568 0.246446 12.6146C0.0886492 12.7724 0 12.9864 0 13.2095V16.5752C0.00132943 16.6852 0.0241983 16.7938 0.0673134 16.8949C0.152696 17.1005 0.316079 17.2639 0.521679 17.3493C0.622837 17.3924 0.731464 17.4153 0.841419 17.4166H4.20709C4.43025 17.4166 4.64427 17.328 4.80207 17.1702C4.95986 17.0124 5.04851 16.7984 5.04851 16.5752C5.04851 16.352 4.95986 16.138 4.80207 15.9802C4.64427 15.8224 4.43025 15.7338 4.20709 15.7338H2.86924L6.63038 11.9811C6.78882 11.8226 6.87783 11.6077 6.87783 11.3837C6.87783 11.1596 6.78882 10.9447 6.63038 10.7862C6.47194 10.6278 6.25704 10.5388 6.03297 10.5388C5.8089 10.5388 5.59401 10.6278 5.43556 10.7862Z" fill="white"/>
<path d="M15.9565 5.84377C15.724 5.84377 15.501 5.7514 15.3365 5.58698C15.1721 5.42256 15.0798 5.19956 15.0798 4.96703V2.33684H12.4496C12.217 2.33684 11.994 2.24447 11.8296 2.08005C11.6652 1.91563 11.5728 1.69263 11.5728 1.46011C11.5728 1.22758 11.6652 1.00458 11.8296 0.840163C11.994 0.675744 12.217 0.583374 12.4496 0.583374H15.9565C16.189 0.583374 16.412 0.675744 16.5764 0.840163C16.7409 1.00458 16.8332 1.22758 16.8332 1.46011V4.96703C16.8332 5.19956 16.7409 5.42256 16.5764 5.58698C16.412 5.7514 16.189 5.84377 15.9565 5.84377Z" fill="white"/>
</svg>
