<svg width="13" height="8" viewBox="0 0 13 8" fill="none" xmlns="http://www.w3.org/2000/svg">
<path d="M0.533764 0.962201C0.709571 0.786447 0.947984 0.687714 1.19658 0.687714C1.44517 0.687714 1.68358 0.786447 1.85939 0.962201L6.5 5.60283L11.1406 0.962201C11.3174 0.791428 11.5542 0.696933 11.8001 0.699069C12.0459 0.701205 12.281 0.799801 12.4548 0.973621C12.6286 1.14744 12.7272 1.38258 12.7294 1.62839C12.7315 1.8742 12.637 2.11101 12.4662 2.28783L7.16281 7.59126C6.98701 7.76702 6.74859 7.86575 6.5 7.86575C6.25141 7.86575 6.013 7.76702 5.83719 7.59126L0.533764 2.28783C0.35801 2.11202 0.259277 1.8736 0.259277 1.62501C0.259277 1.37642 0.35801 1.13801 0.533764 0.962201Z" fill="white"/>
</svg>
