<svg width="20" height="21" viewBox="0 0 20 21" fill="none" xmlns="http://www.w3.org/2000/svg">
<path d="M17.2917 20.9166H2.70833C2.1558 20.9166 1.62589 20.6972 1.23519 20.3065C0.844493 19.9158 0.625 19.3858 0.625 18.8333V4.24998C0.625 3.69745 0.844493 3.16754 1.23519 2.77684C1.62589 2.38614 2.1558 2.16665 2.70833 2.16665H4.79167V0.083313H6.875V2.16665H13.125V0.083313H15.2083V2.16665H17.2917C17.8442 2.16665 18.3741 2.38614 18.7648 2.77684C19.1555 3.16754 19.375 3.69745 19.375 4.24998V18.8333C19.375 19.3858 19.1555 19.9158 18.7648 20.3065C18.3741 20.6972 17.8442 20.9166 17.2917 20.9166ZM2.70833 8.41665V18.8333H17.2917V8.41665H2.70833ZM2.70833 4.24998V6.33331H17.2917V4.24998H2.70833ZM15.2083 16.75H13.125V14.6666H15.2083V16.75ZM11.0417 16.75H8.95833V14.6666H11.0417V16.75ZM6.875 16.75H4.79167V14.6666H6.875V16.75ZM15.2083 12.5833H13.125V10.5H15.2083V12.5833ZM11.0417 12.5833H8.95833V10.5H11.0417V12.5833ZM6.875 12.5833H4.79167V10.5H6.875V12.5833Z" fill="white" fill-opacity="0.87"/>
</svg>
