<svg width="22" height="22" viewBox="0 0 22 22" fill="none" xmlns="http://www.w3.org/2000/svg">
<path d="M12.1993 10.9952L21.2041 1.98159C21.363 1.82194 21.4521 1.60585 21.4519 1.38063C21.4518 1.15541 21.3624 0.939428 21.2033 0.779992C20.8849 0.463192 20.3241 0.461592 20.0025 0.781592L11.0001 9.79519L1.99451 0.779192C1.67451 0.463192 1.11371 0.464792 0.795315 0.780792C0.716284 0.859507 0.653723 0.953174 0.61128 1.05633C0.568838 1.15948 0.547365 1.27005 0.548115 1.38159C0.548115 1.60879 0.636115 1.82159 0.795315 1.97919L9.80011 10.9944L0.796115 20.0104C0.637223 20.1703 0.548242 20.3867 0.548692 20.6121C0.549142 20.8375 0.638986 21.0535 0.798515 21.2128C0.952915 21.3656 1.17131 21.4536 1.39691 21.4536H1.40171C1.62811 21.4528 1.84651 21.364 1.99771 21.2096L11.0001 12.196L20.0057 21.212C20.1649 21.3704 20.3777 21.4584 20.6033 21.4584C20.7149 21.4587 20.8254 21.437 20.9285 21.3944C21.0316 21.3519 21.1253 21.2894 21.2042 21.2105C21.2831 21.1316 21.3456 21.0379 21.3881 20.9348C21.4307 20.8317 21.4524 20.7211 21.4521 20.6096C21.4521 20.3832 21.3641 20.1696 21.2041 20.012L12.1993 10.9952Z" fill="white"/>
</svg>
