<svg width="24" height="26" viewBox="0 0 24 26" fill="none" xmlns="http://www.w3.org/2000/svg">
<path d="M21.7439 15.9082L22.7214 15.3679L21.6408 13.4123L20.6633 13.9527C19.9137 14.3674 19.2496 14.9205 18.7062 15.5827L14.2344 13L18.7067 10.4173C19.2501 11.0795 19.9142 11.6326 20.6638 12.0473L21.6413 12.5877L22.722 10.6321L21.7444 10.0918C21.3519 9.87498 20.9937 9.60117 20.6816 9.27926L23.375 7.72129L22.2578 5.78906L19.5664 7.34195C19.4429 6.91038 19.3844 6.46283 19.3927 6.01402L19.4136 4.89684L17.1792 4.8552L17.1584 5.97238C17.1426 6.82812 17.2889 7.67911 17.5895 8.48047L13.1172 11.0647V5.89977C13.9622 5.75999 14.7731 5.46138 15.507 5.01973L16.4637 4.44336L15.3104 2.52941L14.3537 3.10578C13.9691 3.33702 13.5524 3.51003 13.1172 3.61918V0.8125H10.8828V3.61918C10.4476 3.51003 10.0309 3.33702 9.64629 3.10578L8.68957 2.52941L7.53633 4.44336L8.49305 5.01973C9.2269 5.46138 10.0378 5.75999 10.8828 5.89977V11.0647L6.41051 8.48047C6.71206 7.67861 6.85904 6.8269 6.84367 5.97035L6.82285 4.85316L4.58848 4.8948L4.6093 6.01199C4.61762 6.4608 4.55909 6.90835 4.43563 7.33992L1.74219 5.78906L0.625 7.72383L3.31895 9.27977C3.0068 9.60167 2.64861 9.87549 2.25609 10.0923L1.27855 10.6321L2.35918 12.5877L3.33672 12.0473C4.08627 11.6326 4.75038 11.0795 5.29383 10.4173L9.76562 13L5.29332 15.5827C4.74987 14.9205 4.08577 14.3674 3.33621 13.9527L2.35918 13.4123L1.27855 15.3679L2.25609 15.9082C2.64861 16.125 3.0068 16.3988 3.31895 16.7207L0.625 18.2812L1.74219 20.216L4.43613 18.6606C4.5596 19.0922 4.61813 19.5397 4.6098 19.9885L4.58898 21.1057L6.82336 21.1473L6.84418 20.0302C6.85945 19.1734 6.71229 18.3215 6.41051 17.5195L10.8828 14.9353V20.1002C10.0378 20.24 9.2269 20.5386 8.49305 20.9803L7.53633 21.5566L8.68957 23.4706L9.64629 22.8942C10.0309 22.663 10.4476 22.49 10.8828 22.3808V25.1875H13.1172V22.3808C13.5524 22.49 13.9691 22.663 14.3537 22.8942L15.3104 23.4706L16.4637 21.5566L15.507 20.9803C14.7731 20.5386 13.9622 20.24 13.1172 20.1002V14.9353L17.5895 17.5195C17.2879 18.3214 17.141 19.1731 17.1563 20.0296L17.1771 21.1468L19.4115 21.1052L19.3907 19.988C19.3828 19.5384 19.4421 19.0902 19.5664 18.658L22.2578 20.2135L23.375 18.2812L20.6836 16.7228C20.9948 16.4003 21.3522 16.1259 21.7439 15.9082Z" fill="white"/>
</svg>
