<svg width="28" height="28" viewBox="0 0 28 28" fill="none" xmlns="http://www.w3.org/2000/svg">
<path d="M12.6245 2.33675L12.7412 2.35659L22.6579 4.68992C22.83 4.73018 22.9858 4.82162 23.1049 4.95219C23.2241 5.08277 23.3008 5.24636 23.3252 5.42142L23.3334 5.54159V22.4583C23.3334 22.635 23.28 22.8076 23.18 22.9534C23.08 23.0992 22.9383 23.2113 22.7734 23.2749L22.659 23.3099L12.7424 25.6433C12.6237 25.6712 12.5005 25.6741 12.3807 25.6516C12.2609 25.6292 12.1471 25.582 12.0466 25.513C11.9461 25.444 11.8611 25.3548 11.7971 25.2511C11.7331 25.1473 11.6914 25.0313 11.6749 24.9106L11.6667 24.7916V3.20825C11.6665 2.98154 11.7544 2.76363 11.9117 2.60041C12.0691 2.43719 12.2836 2.34141 12.5102 2.33325L12.6245 2.33675ZM13.4167 4.31309V23.6868L21.5834 21.7653V6.23459L13.4167 4.31309ZM10.5 4.66659V6.41658H6.41669V21.5833H10.5V23.3333H5.54169C5.33024 23.3332 5.12595 23.2567 4.9666 23.1177C4.80725 22.9787 4.70361 22.7867 4.67485 22.5772L4.66669 22.4583V5.54159C4.6667 5.33014 4.74327 5.12585 4.88225 4.9665C5.02123 4.80715 5.21321 4.70351 5.42269 4.67475L5.54169 4.66659H10.5ZM16.3334 12.8333C16.6428 12.8333 16.9395 12.9562 17.1583 13.175C17.3771 13.3938 17.5 13.6905 17.5 13.9999C17.5 14.3093 17.3771 14.6061 17.1583 14.8249C16.9395 15.0437 16.6428 15.1666 16.3334 15.1666C16.0239 15.1666 15.7272 15.0437 15.5084 14.8249C15.2896 14.6061 15.1667 14.3093 15.1667 13.9999C15.1667 13.6905 15.2896 13.3938 15.5084 13.175C15.7272 12.9562 16.0239 12.8333 16.3334 12.8333Z" fill="white"/>
</svg>
