<svg width="26" height="26" viewBox="0 0 26 26" fill="none" xmlns="http://www.w3.org/2000/svg">
<path d="M13.0001 17.3334C15.3933 17.3334 17.3334 15.3933 17.3334 13.0001C17.3334 10.6068 15.3933 8.66675 13.0001 8.66675C10.6068 8.66675 8.66675 10.6068 8.66675 13.0001C8.66675 15.3933 10.6068 17.3334 13.0001 17.3334Z" fill="white"/>
<path d="M14.0834 4.40816V2.16675H11.9167V4.40816C10.0104 4.65157 8.2388 5.52093 6.87987 6.87987C5.52093 8.2388 4.65157 10.0104 4.40816 11.9167H2.16675V14.0834H4.40816C4.65121 15.9899 5.52046 17.7617 6.87946 19.1207C8.23846 20.4797 10.0103 21.3489 11.9167 21.592V23.8334H14.0834V21.592C15.99 21.3491 17.7619 20.4799 19.1209 19.1209C20.4799 17.7619 21.3491 15.99 21.592 14.0834H23.8334V11.9167H21.592C21.3489 10.0103 20.4797 8.23846 19.1207 6.87946C17.7617 5.52046 15.9899 4.65121 14.0834 4.40816ZM13.0001 19.5001C9.41533 19.5001 6.50008 16.5848 6.50008 13.0001C6.50008 9.41533 9.41533 6.50008 13.0001 6.50008C16.5848 6.50008 19.5001 9.41533 19.5001 13.0001C19.5001 16.5848 16.5848 19.5001 13.0001 19.5001Z" fill="white"/>
</svg>
