<svg width="22" height="24" viewBox="0 0 22 24" fill="none" xmlns="http://www.w3.org/2000/svg">
<path d="M21.7499 7.87504C20.9416 7.89529 20.1428 7.69738 19.4374 7.30212C18.8741 6.9788 18.2326 6.81663 17.5833 6.83337V5.79171C18.3916 5.77146 19.1904 5.96937 19.8958 6.36462C20.4591 6.68795 21.1006 6.85011 21.7499 6.83337V7.87504ZM21.7499 4.75004C21.1006 4.76678 20.4591 4.60462 19.8958 4.28129C19.1904 3.88603 18.3916 3.68812 17.5833 3.70837V4.75004C18.2326 4.7333 18.8741 4.89546 19.4374 5.21879C20.1428 5.61405 20.9416 5.81196 21.7499 5.79171V4.75004ZM21.7499 8.91671C21.1006 8.93345 20.4591 8.77128 19.8958 8.44796C19.1904 8.0527 18.3916 7.85479 17.5833 7.87504V8.91671C18.2326 8.89997 18.8741 9.06213 19.4374 9.38546C20.1428 9.78072 20.9416 9.97862 21.7499 9.95837V8.91671ZM9.24993 11.7605C11.7097 11.2847 14.1434 10.6832 16.5416 9.95837V2.66671C16.5416 2.66671 9.77076 0.583374 6.64576 0.583374C5.25461 0.58729 3.91241 1.09725 2.86964 2.01808C1.82687 2.93891 1.15476 4.20771 0.978759 5.58768C0.802755 6.96766 1.13487 8.36453 1.91314 9.51762C2.6914 10.6707 3.86263 11.5012 5.20826 11.8542L6.12493 18.2917H7.1666C7.20825 18.7882 7.36802 19.2675 7.63258 19.6897C7.89713 20.1119 8.25881 20.4648 8.68743 20.7188C9.17069 21.0061 9.57203 21.4128 9.85293 21.8998C10.1338 22.3868 10.2849 22.9379 10.2916 23.5H11.3333C11.3285 22.7824 11.1439 22.0775 10.7964 21.4497C10.4488 20.8218 9.94933 20.2912 9.34368 19.9063C8.61451 19.3334 8.20826 18.948 8.20826 18.2917H9.24993V11.7605ZM6.64576 8.91671C6.13071 8.91671 5.62722 8.76398 5.19897 8.47783C4.77071 8.19168 4.43693 7.78496 4.23983 7.30911C4.04272 6.83326 3.99115 6.30965 4.09163 5.80449C4.19212 5.29933 4.44014 4.83532 4.80434 4.47112C5.16854 4.10692 5.63256 3.85889 6.13772 3.75841C6.64287 3.65793 7.16649 3.7095 7.64233 3.9066C8.11818 4.10371 8.5249 4.43749 8.81105 4.86574C9.0972 5.294 9.24993 5.79748 9.24993 6.31254C9.24993 7.00321 8.97556 7.66559 8.48719 8.15396C7.99881 8.64234 7.33643 8.91671 6.64576 8.91671Z" fill="white"/>
</svg>
