<svg width="15" height="22" viewBox="0 0 15 22" fill="none" xmlns="http://www.w3.org/2000/svg">
<path d="M3.33325 6.83337V4.75004H5.41659V6.83337H3.33325ZM2.29159 0.583374H12.7083C13.2608 0.583374 13.7907 0.802867 14.1814 1.19357C14.5721 1.58427 14.7916 2.11417 14.7916 2.66671V18.2917C14.7916 18.8442 14.5721 19.3741 14.1814 19.7648C13.7907 20.1555 13.2608 20.375 12.7083 20.375V21.4167H10.6249V20.375H4.37492V21.4167H2.29159V20.375C1.73905 20.375 1.20915 20.1555 0.818446 19.7648C0.427745 19.3741 0.208252 18.8442 0.208252 18.2917V2.66671C0.208252 2.11417 0.427745 1.58427 0.818446 1.19357C1.20915 0.802867 1.73905 0.583374 2.29159 0.583374ZM2.29159 2.66671V7.87504H12.7083V2.66671H2.29159ZM3.33325 11V14.125H5.41659V11H3.33325Z" fill="white"/>
</svg>
