<svg width="27" height="27" viewBox="0 0 27 27" fill="none" xmlns="http://www.w3.org/2000/svg">
<path d="M13.5005 0.772728C10.0441 0.772728 9.61035 0.787842 8.25281 0.849622C6.89793 0.911668 5.97311 1.12617 5.16389 1.44091C4.32683 1.76599 3.61678 2.20083 2.90937 2.90852C2.20144 3.61595 1.76661 4.32602 1.44048 5.16284C1.12496 5.97235 0.910192 6.89746 0.849209 8.25186C0.788491 9.60943 0.772583 10.0435 0.772583 13.5C0.772583 16.9565 0.787962 17.389 0.849475 18.7466C0.911784 20.1015 1.12628 21.0263 1.44074 21.8356C1.76608 22.6726 2.20091 23.3827 2.90858 24.0901C3.61572 24.7981 4.32577 25.234 5.1623 25.5591C5.97205 25.8738 6.89713 26.0883 8.25175 26.1504C9.60929 26.2122 10.0428 26.2273 13.4989 26.2273C16.9556 26.2273 17.3881 26.2122 18.7456 26.1504C20.1005 26.0883 21.0264 25.8738 21.8361 25.5591C22.6729 25.234 23.3819 24.7981 24.089 24.0901C24.797 23.3827 25.2318 22.6726 25.5579 21.8358C25.8708 21.0263 26.0856 20.1012 26.1492 18.7468C26.2102 17.3892 26.2261 16.9565 26.2261 13.5C26.2261 10.0435 26.2102 9.6097 26.1492 8.25212C26.0856 6.8972 25.8708 5.97235 25.5579 5.16311C25.2318 4.32602 24.797 3.61595 24.089 2.90852C23.3811 2.20057 22.6732 1.76572 21.8353 1.44091C21.024 1.12617 20.0986 0.911668 18.7437 0.849622C17.3862 0.787842 16.954 0.772728 13.4966 0.772728H13.5005ZM12.3588 3.06629C12.6977 3.06576 13.0758 3.06629 13.5005 3.06629C16.8986 3.06629 17.3014 3.07849 18.6433 3.13947C19.8841 3.19621 20.5576 3.40356 21.0062 3.57777C21.6001 3.80845 22.0236 4.0842 22.4687 4.52966C22.9142 4.97511 23.1899 5.39936 23.4211 5.9933C23.5953 6.4414 23.8029 7.11489 23.8594 8.35579C23.9204 9.69746 23.9337 10.1005 23.9337 13.4971C23.9337 16.8937 23.9204 17.2967 23.8594 18.6384C23.8027 19.8793 23.5953 20.5528 23.4211 21.0009C23.1905 21.5948 22.9142 22.0177 22.4687 22.4629C22.0233 22.9084 21.6004 23.1841 21.0062 23.4148C20.5581 23.5898 19.8841 23.7966 18.6433 23.8534C17.3016 23.9144 16.8986 23.9276 13.5005 23.9276C10.1022 23.9276 9.69943 23.9144 8.35781 23.8534C7.11694 23.7961 6.44347 23.5887 5.99458 23.4145C5.40066 23.1839 4.97643 22.9081 4.53099 22.4626C4.08555 22.0172 3.8098 21.594 3.5786 20.9998C3.4044 20.5517 3.19679 19.8782 3.14031 18.6373C3.07933 17.2956 3.06713 16.8926 3.06713 13.4939C3.06713 10.0952 3.07933 9.69428 3.14031 8.35261C3.19706 7.1117 3.4044 6.43822 3.5786 5.98958C3.80927 5.39564 4.08555 4.9714 4.53099 4.52595C4.97643 4.08049 5.40066 3.80473 5.99458 3.57352C6.44321 3.39852 7.11694 3.1917 8.35781 3.1347C9.53186 3.08167 9.98685 3.06576 12.3588 3.06311V3.06629ZM20.294 5.17954C19.4509 5.17954 18.7668 5.86284 18.7668 6.70629C18.7668 7.54947 19.4509 8.23356 20.294 8.23356C21.1372 8.23356 21.8213 7.54947 21.8213 6.70629C21.8213 5.86311 21.1372 5.17902 20.294 5.17902V5.17954ZM13.5005 6.96401C9.89113 6.96401 6.96474 9.89049 6.96474 13.5C6.96474 17.1095 9.89113 20.0347 13.5005 20.0347C17.1099 20.0347 20.0353 17.1095 20.0353 13.5C20.0353 9.89049 17.1097 6.96401 13.5003 6.96401H13.5005ZM13.5005 9.25758C15.8433 9.25758 17.7428 11.1569 17.7428 13.5C17.7428 15.8429 15.8433 17.7424 13.5005 17.7424C11.1575 17.7424 9.25824 15.8429 9.25824 13.5C9.25824 11.1569 11.1575 9.25758 13.5005 9.25758Z" fill="white" fill-opacity="0.87"/>
</svg>
