<svg width="26" height="26" viewBox="0 0 26 26" fill="none" xmlns="http://www.w3.org/2000/svg">
<path d="M13.0001 22.75C11.6318 21.5829 10.3635 20.3033 9.20842 18.9248C7.47508 16.8545 5.41675 13.7714 5.41675 10.8334C5.416 9.33289 5.86038 7.86593 6.69367 6.61813C7.52695 5.37033 8.71168 4.39776 10.0979 3.82353C11.4841 3.2493 13.0096 3.09921 14.4811 3.39225C15.9527 3.68529 17.3042 4.4083 18.3648 5.46977C19.0708 6.1727 19.6305 7.00868 20.0113 7.92934C20.3921 8.85 20.5866 9.83704 20.5834 10.8334C20.5834 13.7714 18.5251 16.8545 16.7918 18.9248C15.6367 20.3033 14.3684 21.5829 13.0001 22.75ZM13.0001 7.58335C12.1381 7.58335 11.3115 7.92576 10.702 8.53525C10.0925 9.14475 9.75008 9.9714 9.75008 10.8334C9.75008 11.6953 10.0925 12.522 10.702 13.1314C11.3115 13.7409 12.1381 14.0834 13.0001 14.0834C13.862 14.0834 14.6887 13.7409 15.2982 13.1314C15.9077 12.522 16.2501 11.6953 16.2501 10.8334C16.2501 9.9714 15.9077 9.14475 15.2982 8.53525C14.6887 7.92576 13.862 7.58335 13.0001 7.58335Z" fill="white"/>
</svg>
