<svg width="20" height="15" viewBox="0 0 20 20" fill="none" xmlns="http://www.w3.org/2000/svg">
<path d="M14.1674 16.6666H5.00077C4.55875 16.6666 4.13482 16.491 3.82226 16.1784C3.5097 15.8659 3.33411 15.4419 3.33411 14.9999V5.83325C3.33411 5.39122 3.5097 4.9673 3.82226 4.65474C4.13482 4.34218 4.55875 4.16659 5.00077 4.16659H8.33411V5.83325H5.00077V14.9999H14.1674V11.6666H15.8341V14.9999C15.8341 15.4419 15.6585 15.8659 15.346 16.1784C15.0334 16.491 14.6095 16.6666 14.1674 16.6666ZM9.75077 11.4224L8.57577 10.2441L13.8199 4.99992H10.8341V3.33325H16.6674V9.16658H15.0008V6.17909L9.75077 11.4224Z" fill="white"/>
</svg>
