<svg width="28" height="28" viewBox="0 0 28 28" fill="none" xmlns="http://www.w3.org/2000/svg">
<path d="M26.9681 25.1988H17.5V27.9987H27.0649C27.2758 28.0111 27.4838 27.9362 27.654 27.7864C27.8243 27.6367 27.9464 27.4212 28 27.1762V26.4972C28 26.4972 27.993 25.1988 26.9681 25.1988ZM25.6585 24.6458C26.28 24.6447 26.8758 24.3476 27.3148 23.8197C27.7539 23.2918 28.0003 22.5764 28 21.8306C28 20.2717 26.95 19.0146 25.6585 19.0146C25.3509 19.0152 25.0465 19.0886 24.7626 19.2305C24.4787 19.3724 24.2208 19.58 24.0038 19.8415C23.7868 20.103 23.6148 20.4133 23.4978 20.7546C23.3807 21.0959 23.3209 21.4615 23.3217 21.8306C23.3217 23.3838 24.3687 24.6458 25.6585 24.6458ZM20.727 24.4988C21.9555 24.4988 22.9437 23.4601 22.9437 21.988C22.9431 20.5188 21.9514 19.7482 20.7323 19.737L17.5 20.2283V24.4988H20.727ZM10.2218 6.2528C11.6562 6.2528 12.8164 4.85287 12.8164 3.12605C12.8164 1.39923 11.6562 0 10.2218 0C8.7885 0 7.6265 1.39923 7.6265 3.12605C7.6265 4.85287 8.7885 6.2528 10.2218 6.2528ZM7.57225 16.3715L7.54892 16.3309L6.37292 13.0453L6.37117 19.5991H9.88575L10.6534 18.6191L8.5715 17.6574C8.078 17.4348 7.72742 16.9308 7.57225 16.3715ZM8.31717 16.0768C8.43092 16.3834 8.6415 16.6319 8.90633 16.746L12.9179 18.5302C13.0401 18.5948 13.1718 18.6297 13.3053 18.633C13.4388 18.6363 13.5715 18.608 13.6958 18.5496C13.8202 18.4912 13.9337 18.4038 14.0298 18.2927C14.126 18.1815 14.2029 18.0486 14.2561 17.9016C14.3647 17.6038 14.3707 17.2666 14.2727 16.9635C14.1748 16.6604 13.9809 16.4161 13.7334 16.284L10.0322 14.6069L8.88883 11.3164L9.63433 10.9832L10.6032 13.8026L13.4167 15.0542V11.6089L14.91 12.675L15.6543 17.1744C15.6972 17.3266 15.7648 17.4671 15.8532 17.5878C15.9416 17.7085 16.0491 17.807 16.1694 17.8776C16.2897 17.9481 16.4205 17.9894 16.5541 17.9989C16.6878 18.0084 16.8217 17.9861 16.9482 17.9331C17.2028 17.8245 17.4114 17.5997 17.5288 17.3076C17.6462 17.0155 17.6629 16.6797 17.5752 16.3729L16.7411 12.0394C16.6864 11.7995 16.5721 11.5854 16.4132 11.4256C15.9857 10.8572 13.8232 7.95582 13.6692 7.76193C13.4435 7.49034 12.9272 6.99967 11.9519 6.99967H8.45192C6.46275 6.99967 6.08008 9.43555 6.48667 10.6745L8.31717 16.0768ZM16.9167 20.299H1.14742C0.573417 20.299 0 20.6875 0 21.5422V27.9987H16.9167V20.299Z" fill="white"/>
</svg>
