<svg width="28" height="28" viewBox="0 0 28 28" fill="none" xmlns="http://www.w3.org/2000/svg">
<path opacity="0.3" d="M25.6666 24.5002C24.3716 24.5002 23.6483 24.0685 23.1233 23.7535C22.6916 23.4969 22.4233 23.3335 21.7816 23.3335C21.1283 23.3335 20.8716 23.4852 20.44 23.7535C19.9033 24.0685 19.1916 24.5002 17.8966 24.5002C16.6016 24.5002 15.8783 24.0685 15.3533 23.7535C14.9216 23.4969 14.6533 23.3335 14.0116 23.3335C13.3583 23.3335 13.1016 23.4852 12.67 23.7535C12.1333 24.0685 11.41 24.5002 10.115 24.5002C8.81998 24.5002 8.09665 24.0685 7.57165 23.7535C7.13998 23.4852 6.87165 23.3335 6.22998 23.3335C5.58831 23.3335 5.31998 23.4852 4.88831 23.7535C4.35165 24.0685 3.62831 24.5002 2.33331 24.5002V22.1669C2.98665 22.1669 3.24331 22.0152 3.67498 21.7469C4.21165 21.4319 4.93498 21.0002 6.22998 21.0002C7.52498 21.0002 8.24831 21.4319 8.77331 21.7469C9.20498 22.0152 9.46165 22.1669 10.115 22.1669C10.7683 22.1669 11.025 22.0152 11.4566 21.7469C11.9933 21.4319 12.7166 21.0002 14.0116 21.0002C15.3066 21.0002 16.03 21.4319 16.555 21.7469C16.9866 22.0035 17.255 22.1669 17.8966 22.1669C18.5383 22.1669 18.8066 22.0152 19.2383 21.7469C19.7633 21.4319 20.4866 21.0002 21.7816 21.0002C23.0766 21.0002 23.8 21.4319 24.325 21.7469C24.7566 22.0152 25.0133 22.1669 25.6666 22.1669V24.5002ZM25.6666 19.2502C24.3716 19.2502 23.6483 18.8185 23.1233 18.5035C22.6916 18.2469 22.4233 18.0835 21.7816 18.0835C21.1283 18.0835 20.8716 18.2352 20.44 18.5035C19.915 18.8185 19.1916 19.2502 17.8966 19.2502C16.6016 19.2502 15.8783 18.8185 15.3533 18.5035C14.9216 18.2469 14.6533 18.0835 14.0116 18.0835C13.3583 18.0835 13.1016 18.2352 12.67 18.5035C12.145 18.8185 11.4216 19.2502 10.1266 19.2502C8.83165 19.2502 8.10831 18.8185 7.58331 18.5035C7.15165 18.2469 6.88331 18.0835 6.24165 18.0835C5.59998 18.0835 5.33165 18.2352 4.89998 18.5035C4.35165 18.8185 3.62831 19.2502 2.33331 19.2502V16.9169C2.98665 16.9169 3.24331 16.7652 3.67498 16.4969C4.19998 16.1819 4.92331 15.7502 6.21831 15.7502C7.51331 15.7502 8.23665 16.1819 8.76165 16.4969C9.19331 16.7535 9.46165 16.9169 10.1033 16.9169C10.7566 16.9169 11.0133 16.7652 11.445 16.4969C11.97 16.1819 12.6933 15.7502 13.9883 15.7502C15.2833 15.7502 16.0066 16.1819 16.5316 16.4969C16.9633 16.7535 17.2316 16.9169 17.8733 16.9169C18.515 16.9169 18.7833 16.7652 19.215 16.4969C19.74 16.1819 20.4633 15.7502 21.7583 15.7502C23.0533 15.7502 23.7766 16.1819 24.3016 16.4969C24.7333 16.7535 25.0016 16.9169 25.6433 16.9169V19.2502H25.6666ZM10.115 14.0002C10.7683 14.0002 11.025 13.8485 11.4566 13.5802C11.9933 13.2652 12.7166 12.8335 14.0116 12.8335C15.3066 12.8335 16.03 13.2652 16.555 13.5802C16.9866 13.8369 17.255 14.0002 17.8966 14.0002C18.5383 14.0002 18.8066 13.8485 19.2383 13.5802C19.3783 13.4985 19.5416 13.4052 19.7166 13.3119L12.2266 5.83352C10.4183 4.02519 8.74998 3.48852 5.83331 3.50019V6.41685C7.95665 6.40519 9.20498 6.87185 10.5 8.16685L11.6666 9.33352L7.87498 13.1252C8.23665 13.2652 8.52831 13.4402 8.77331 13.5802C9.20498 13.8485 9.46165 14.0002 10.115 14.0002Z" fill="white"/>
<path opacity="0.3" d="M19.25 9.33333C20.8608 9.33333 22.1666 8.0275 22.1666 6.41667C22.1666 4.80584 20.8608 3.5 19.25 3.5C17.6391 3.5 16.3333 4.80584 16.3333 6.41667C16.3333 8.0275 17.6391 9.33333 19.25 9.33333Z" fill="white"/>
<path d="M25.6666 19.2502H25.6433H25.6666ZM11.6666 9.33352L7.87498 13.1252C8.23665 13.2652 8.52831 13.4402 8.77331 13.5802C9.20498 13.8485 9.46165 14.0002 10.115 14.0002C10.7683 14.0002 11.025 13.8485 11.4566 13.5802C11.9933 13.2652 12.7166 12.8335 14.0116 12.8335C15.3066 12.8335 16.03 13.2652 16.555 13.5802C16.9866 13.8369 17.255 14.0002 17.8966 14.0002C18.5383 14.0002 18.8066 13.8485 19.2383 13.5802C19.3783 13.4985 19.5416 13.4052 19.7166 13.3119L12.2266 5.83352C10.4183 4.02519 8.74998 3.48852 5.83331 3.50019V6.41685C7.95665 6.40519 9.20498 6.87185 10.5 8.16685L11.6666 9.33352ZM6.24165 18.0835C6.88331 18.0835 7.15165 18.2469 7.58331 18.5035C8.10831 18.8185 8.83165 19.2502 10.1266 19.2502C11.4216 19.2502 12.145 18.8185 12.67 18.5035C13.1016 18.2352 13.3583 18.0835 14.0116 18.0835C14.6533 18.0835 14.9216 18.2469 15.3533 18.5035C15.8783 18.8185 16.6016 19.2502 17.8966 19.2502C19.1916 19.2502 19.915 18.8185 20.44 18.5035C20.8716 18.2352 21.1283 18.0835 21.7816 18.0835C22.4233 18.0835 22.6916 18.2469 23.1233 18.5035C23.6483 18.8185 24.36 19.2385 25.6433 19.2502V16.9169C25.0016 16.9169 24.7333 16.7535 24.3016 16.4969C23.7766 16.1819 23.0533 15.7502 21.7583 15.7502C20.4633 15.7502 19.74 16.1819 19.215 16.4969C18.7833 16.7652 18.515 16.9169 17.8733 16.9169C17.2316 16.9169 16.9633 16.7535 16.5316 16.4969C16.0066 16.1819 15.2833 15.7502 13.9883 15.7502C12.6933 15.7502 11.97 16.1819 11.445 16.4969C11.0133 16.7652 10.7566 16.9169 10.1033 16.9169C9.46165 16.9169 9.19331 16.7535 8.76165 16.4969C8.23665 16.1819 7.51331 15.7502 6.21831 15.7502C4.92331 15.7502 4.19998 16.1819 3.67498 16.4969C3.24331 16.7652 2.98665 16.9169 2.33331 16.9169V19.2502C3.62831 19.2502 4.35165 18.8185 4.89998 18.5035C5.33165 18.2352 5.59998 18.0835 6.24165 18.0835ZM21.7816 21.0002C20.4866 21.0002 19.7633 21.4319 19.2383 21.7469C18.8066 22.0152 18.5383 22.1669 17.8966 22.1669C17.255 22.1669 16.9866 22.0035 16.555 21.7469C16.03 21.4319 15.3066 21.0002 14.0116 21.0002C12.7166 21.0002 11.9933 21.4319 11.4566 21.7469C11.025 22.0152 10.7683 22.1669 10.115 22.1669C9.46165 22.1669 9.20498 22.0152 8.77331 21.7469C8.24831 21.4319 7.52498 21.0002 6.22998 21.0002C4.93498 21.0002 4.21165 21.4319 3.67498 21.7469C3.24331 22.0152 2.98665 22.1669 2.33331 22.1669V24.5002C3.62831 24.5002 4.35165 24.0685 4.88831 23.7535C5.31998 23.4852 5.58831 23.3335 6.22998 23.3335C6.87165 23.3335 7.13998 23.4852 7.57165 23.7535C8.09665 24.0685 8.81998 24.5002 10.115 24.5002C11.41 24.5002 12.1333 24.0685 12.67 23.7535C13.1016 23.4852 13.3583 23.3335 14.0116 23.3335C14.6533 23.3335 14.9216 23.4969 15.3533 23.7535C15.8783 24.0685 16.6016 24.5002 17.8966 24.5002C19.1916 24.5002 19.9033 24.0685 20.44 23.7535C20.8716 23.4852 21.1283 23.3335 21.7816 23.3335C22.4233 23.3335 22.6916 23.4969 23.1233 23.7535C23.6483 24.0685 24.3716 24.5002 25.6666 24.5002V22.1669C25.0133 22.1669 24.7566 22.0152 24.325 21.7469C23.8 21.4319 23.0766 21.0002 21.7816 21.0002Z" fill="white"/>
<path d="M19.25 9.33333C20.8608 9.33333 22.1666 8.0275 22.1666 6.41667C22.1666 4.80584 20.8608 3.5 19.25 3.5C17.6391 3.5 16.3333 4.80584 16.3333 6.41667C16.3333 8.0275 17.6391 9.33333 19.25 9.33333Z" fill="white"/>
</svg>
