<svg width="28" height="28" viewBox="0 0 28 28" fill="none" xmlns="http://www.w3.org/2000/svg">
<path d="M26.25 9.625V2.625C26.25 2.39294 26.1578 2.17038 25.9937 2.00628C25.8296 1.84219 25.6071 1.75 25.375 1.75H16.625C16.3929 1.75 16.1704 1.84219 16.0063 2.00628C15.8422 2.17038 15.75 2.39294 15.75 2.625V9.625C15.752 10.8646 16.1922 12.0635 16.9928 13.0099C17.7934 13.9562 18.9029 14.589 20.125 14.7962V24.5H16.625V26.25H25.375V24.5H21.875V14.7962C23.0971 14.589 24.2066 13.9562 25.0072 13.0099C25.8078 12.0635 26.248 10.8646 26.25 9.625ZM17.5 9.625V3.5H24.5V9.625C24.5 10.5533 24.1313 11.4435 23.4749 12.0999C22.8185 12.7563 21.9283 13.125 21 13.125C20.0717 13.125 19.1815 12.7563 18.5251 12.0999C17.8687 11.4435 17.5 10.5533 17.5 9.625Z" fill="white"/>
<path d="M10.5 1.75V9.6425C10.4991 10.5612 10.1337 11.442 9.4841 12.0916C8.83449 12.7412 7.95369 13.1066 7.035 13.1075C6.10707 13.1157 5.21379 12.7555 4.55109 12.1059C3.88839 11.4563 3.51039 10.5704 3.5 9.6425V1.75H1.75V9.6425C1.75861 10.876 2.20208 12.0669 3.00235 13.0057C3.80262 13.9444 4.90839 14.5707 6.125 14.7744V26.25H7.875V14.7831C9.09489 14.5831 10.2042 13.9567 11.0054 13.0153C11.8066 12.0739 12.2476 10.8787 12.25 9.6425V1.75H10.5Z" fill="white"/>
<path d="M6.125 1.75H7.875V10.4825H6.125V1.75Z" fill="white"/>
</svg>
