<svg width="22" height="22" viewBox="0 0 22 22" fill="none" xmlns="http://www.w3.org/2000/svg">
<path d="M19.6666 0.583374H2.99993C1.8541 0.583374 0.916595 1.52087 0.916595 2.66671V19.3334C0.916595 20.4792 1.8541 21.4167 2.99993 21.4167H19.6666C20.8124 21.4167 21.7499 20.4792 21.7499 19.3334V2.66671C21.7499 1.52087 20.8124 0.583374 19.6666 0.583374ZM8.20826 17.25C7.63534 17.25 7.1666 16.7813 7.1666 16.2084C7.1666 15.6355 7.63534 15.1667 8.20826 15.1667C8.78118 15.1667 9.24993 15.6355 9.24993 16.2084C9.24993 16.7813 8.78118 17.25 8.20826 17.25ZM8.20826 14.125C7.63534 14.125 7.1666 13.6563 7.1666 13.0834C7.1666 12.5105 7.63534 12.0417 8.20826 12.0417C8.78118 12.0417 9.24993 12.5105 9.24993 13.0834C9.24993 13.6563 8.78118 14.125 8.20826 14.125ZM11.3333 17.25C10.7603 17.25 10.2916 16.7813 10.2916 16.2084C10.2916 15.6355 10.7603 15.1667 11.3333 15.1667C11.9062 15.1667 12.3749 15.6355 12.3749 16.2084C12.3749 16.7813 11.9062 17.25 11.3333 17.25ZM11.3333 14.125C10.7603 14.125 10.2916 13.6563 10.2916 13.0834C10.2916 12.5105 10.7603 12.0417 11.3333 12.0417C11.9062 12.0417 12.3749 12.5105 12.3749 13.0834C12.3749 13.6563 11.9062 14.125 11.3333 14.125ZM14.4583 17.25C13.8853 17.25 13.4166 16.7813 13.4166 16.2084C13.4166 15.6355 13.8853 15.1667 14.4583 15.1667C15.0312 15.1667 15.4999 15.6355 15.4999 16.2084C15.4999 16.7813 15.0312 17.25 14.4583 17.25ZM14.4583 14.125C13.8853 14.125 13.4166 13.6563 13.4166 13.0834C13.4166 12.5105 13.8853 12.0417 14.4583 12.0417C15.0312 12.0417 15.4999 12.5105 15.4999 13.0834C15.4999 13.6563 15.0312 14.125 14.4583 14.125ZM16.5416 11H6.12493V9.95837C6.12493 7.08337 8.45826 4.75004 11.3333 4.75004C14.2083 4.75004 16.5416 7.08337 16.5416 9.95837V11Z" fill="white"/>
</svg>
