<svg width="26" height="26" viewBox="0 0 26 26" fill="none" xmlns="http://www.w3.org/2000/svg">
<g clip-path="url(#clip0_529_171)">
<path d="M13.3661 7.75434C13.636 8.00903 14.0758 8.29497 14.7317 8.3731C14.6305 8.84341 14.7004 9.36138 14.9415 9.78325C15.2442 10.3133 15.7696 10.6168 16.3821 10.6168H18.3598C18.9235 10.6168 19.5946 10.8012 19.5946 11.6778V12.686H20.3309V11.6778C20.3309 10.5696 19.5758 9.88091 18.3598 9.88091H16.3817C15.9379 9.88091 15.7012 9.62934 15.5805 9.41802C15.3719 9.05317 15.3696 8.55474 15.5743 8.20708C15.6084 8.14957 15.6261 8.08385 15.6257 8.01699C15.6252 7.95013 15.6065 7.88467 15.5716 7.82766C15.5366 7.77064 15.4868 7.72423 15.4275 7.69341C15.3682 7.6626 15.3015 7.64855 15.2348 7.65278C14.6762 7.68638 14.2063 7.5352 13.8708 7.21919C13.7282 7.08551 13.6142 6.92421 13.5359 6.74511C13.4576 6.56601 13.4166 6.37286 13.4153 6.17739C13.4153 5.66646 13.7137 4.71099 14.8274 4.67895V5.54419H15.5637V5.39458C16.604 5.41567 17.354 6.1145 17.354 7.07388C17.354 7.46177 17.1942 7.91294 16.9282 8.28052C16.8881 8.33538 16.864 8.40027 16.8586 8.46799C16.8532 8.53572 16.8666 8.60361 16.8975 8.66415C16.9283 8.72469 16.9753 8.77549 17.0333 8.81093C17.0912 8.84636 17.1579 8.86504 17.2258 8.86489H18.395C19.918 8.86489 20.7399 10.136 20.7399 11.3325V12.6872H21.4766V11.3325C21.4766 9.75747 20.3235 8.12856 18.3946 8.12856H17.8571C18.0079 7.78208 18.0895 7.41802 18.0895 7.07388C18.0895 5.71099 17.0063 4.68052 15.5629 4.65864V3.72192H14.8262V3.94263C13.4165 3.97192 12.6774 5.08013 12.6774 6.17778C12.6792 6.47353 12.7411 6.76583 12.8594 7.03692C12.9776 7.30801 13.1497 7.55222 13.3653 7.75474L13.3661 7.75434ZM19.595 13.0489H20.3313V15.2735H19.595V13.0489ZM20.7462 13.0489H21.4821V15.2735H20.7462V13.0489Z" fill="white"/>
<path d="M13.5621 0.5C6.79574 0.5 1.29144 6.00469 1.29144 12.7711C1.29144 19.5371 6.79613 25.0418 13.5621 25.0418C20.3286 25.0418 25.8332 19.5371 25.8332 12.7711C25.8336 6.00469 20.3289 0.5 13.5625 0.5H13.5621ZM23.0965 12.7711C23.0965 14.8582 22.4207 16.7891 21.2782 18.3613L18.1989 15.2824H19.1828V13.0844H16.0012L7.97191 5.05547C9.59557 3.87202 11.5534 3.23525 13.5625 3.23711C18.8196 3.23711 23.0969 7.51406 23.0969 12.7715L23.0965 12.7711ZM4.02816 12.7711C4.02649 10.7847 4.64889 8.84793 5.80746 7.23437L11.6571 13.084H5.44301V15.282H13.8551L19.0989 20.5254C17.485 21.6834 15.5484 22.3056 13.5621 22.3043C8.3059 22.3051 4.02855 18.0285 4.02855 12.7707L4.02816 12.7711Z" fill="white"/>
</g>
<defs>
<clipPath id="clip0_529_171">
<rect width="25" height="25" fill="white" transform="translate(0.833252 0.5)"/>
</clipPath>
</defs>
</svg>
