<svg width="26" height="26" viewBox="0 0 26 26" fill="none" xmlns="http://www.w3.org/2000/svg">
<g clip-path="url(#clip0_36_1441)">
<path d="M14.9458 6.0256C16.0224 6.0256 16.8592 5.16166 16.8592 4.09631C16.8592 3.03097 16.0224 2.16663 14.9458 2.16663C13.8692 2.16663 12.9633 3.03056 12.9633 4.09591C12.9633 5.16126 13.8692 6.0256 14.9458 6.0256V6.0256ZM9.49028 17.6725C9.35825 17.9991 9.16536 18.2956 8.91138 18.5364L6.88053 20.5513C6.62667 20.8024 6.49976 21.1326 6.49976 21.4631C6.49988 22.4726 7.43141 22.75 7.79947 22.75C8.13203 22.75 8.4645 22.6243 8.71841 22.3731L11.1299 19.9819C11.3787 19.7407 11.5715 19.4444 11.7088 19.1179L12.2573 17.7615C10.0083 15.3402 10.6834 16.0835 10.328 15.6011L9.49028 17.6725ZM19.4999 13.1779C19.4999 12.7047 19.2402 12.2472 18.7861 12.0225L17.842 11.5449L17.4442 10.3638C17.2187 9.68839 16.102 7.31286 13.2639 7.31286C11.8185 7.31286 11.0117 7.72372 9.50288 8.32836C8.627 8.6753 7.91119 9.33863 7.48463 10.1829L7.21569 10.7296C7.12266 10.9145 7.07838 11.1115 7.07838 11.3045C7.07838 11.998 7.63819 12.5898 8.36335 12.5898C8.8346 12.5898 9.28878 12.3303 9.51588 11.881L9.79001 11.3334C9.9322 11.052 10.1657 10.8309 10.4603 10.7151L11.5455 10.2794L10.9321 12.7196C10.8793 12.9246 10.8549 13.1377 10.8549 13.3427C10.8549 13.9775 11.094 14.6006 11.5374 15.0811L13.9692 17.7147C14.2637 18.0313 14.4717 18.4134 14.5733 18.8251L15.3196 21.7755C15.4662 22.3564 15.9976 22.7484 16.5806 22.7484C17.365 22.7484 17.881 22.0999 17.881 21.4599C17.881 21.3581 17.8686 21.255 17.8427 21.1523L16.9388 17.5739C16.8321 17.1566 16.624 16.7695 16.3347 16.4579L14.4866 14.4574L15.1821 11.6984L15.4055 12.3617C15.6238 13.0102 16.086 13.5429 16.6949 13.8496L17.639 14.322C17.817 14.4111 18.0136 14.4576 18.2131 14.4577C18.8824 14.4603 19.4999 13.9257 19.4999 13.1779Z" fill="white"/>
</g>
<defs>
<clipPath id="clip0_36_1441">
<rect width="13" height="20.5833" fill="white" transform="translate(6.5 2.16663)"/>
</clipPath>
</defs>
</svg>
