<svg width="25" height="21" viewBox="0 0 25 21" fill="none" xmlns="http://www.w3.org/2000/svg">
<path d="M22.7246 0.185602L1.653 8.31297C0.214824 8.88999 0.223354 9.69214 1.39086 10.0498L6.64618 11.6901L8.65699 17.8551C8.90145 18.5299 8.78094 18.7975 9.48951 18.7975C10.0363 18.7975 10.2789 18.5482 10.5835 18.2507C10.7771 18.0612 11.927 16.9432 13.211 15.6948L18.6775 19.7338C19.6834 20.2887 20.4097 20.0012 20.6602 18.7995L24.2486 1.88983C24.6159 0.416912 23.687 -0.251194 22.7246 0.185602ZM7.47095 11.3133L19.3165 3.83984C19.9078 3.48122 20.45 3.67403 20.0049 4.06919L9.86198 13.2206L9.46705 17.4329L7.47095 11.3133Z" fill="white" fill-opacity="0.87"/>
</svg>
