<svg width="28" height="28" viewBox="0 0 28 28" fill="none" xmlns="http://www.w3.org/2000/svg">
<path d="M25.2125 11.9C25.0375 11.3545 24.5625 11 24 11H15.0125C14.4375 11 13.975 11.3545 13.7875 11.9L12 17.5045L12.0125 25.0182C12.0125 25.5364 12.4 26 12.875 26H13.65C14.125 26 14.5 25.4818 14.5 24.9636V23.2727H24.5V24.9636C24.5 25.4818 24.8875 26 25.3625 26H26.125C26.6 26 26.9875 25.5364 26.9875 25.0182L27 23.15V17.5045L25.2125 11.9ZM15.0125 12.3636H24L25.2875 16.4545H13.725L15.0125 12.3636ZM14.5 20.5455C13.8125 20.5455 13.25 19.9318 13.25 19.1818C13.25 18.4318 13.8125 17.8182 14.5 17.8182C15.1875 17.8182 15.75 18.4318 15.75 19.1818C15.75 19.9318 15.1875 20.5455 14.5 20.5455ZM24.5 20.5455C23.8125 20.5455 23.25 19.9318 23.25 19.1818C23.25 18.4318 23.8125 17.8182 24.5 17.8182C25.1875 17.8182 25.75 18.4318 25.75 19.1818C25.75 19.9318 25.1875 20.5455 24.5 20.5455Z" fill="white"/>
<path d="M16.6923 9.66667H18V2H7.53846V8.38889H1V25H2.30769V9.66667H8.84615V3.27778H16.6923V9.66667Z" fill="white"/>
<path d="M5 11.875H7.57143V14.5H5V11.875ZM11.4286 4H14V6.625H11.4286V4ZM5 17.125H7.57143V19.75H5V17.125ZM5 22.375H7.57143V25H5V22.375Z" fill="white"/>
</svg>
