<svg width="26" height="26" viewBox="0 0 26 26" fill="none" xmlns="http://www.w3.org/2000/svg">
<path d="M13.3332 6.74996C17.0176 6.74996 20.4551 8.15933 23.0134 10.7177L24.4864 9.24475C21.5353 6.29267 17.5739 4.66663 13.3332 4.66663C9.09261 4.66767 5.13116 6.29267 2.18011 9.24475L3.65303 10.7177C6.21136 8.15933 9.64886 6.74996 13.3332 6.74996ZM19.2405 15.4031C16.0384 12.201 10.628 12.201 7.42595 15.4031L8.89886 16.876C11.302 14.4729 15.3645 14.4729 17.7676 16.876L19.2405 15.4031Z" fill="white"/>
<path d="M22.1218 12.2635C17.3593 7.49892 9.30825 7.49892 4.54575 12.2635L6.01866 13.7364C9.98429 9.77079 16.6832 9.77079 20.6489 13.7364L22.1218 12.2635Z" fill="white"/>
<path d="M13.3332 21.3333C14.4838 21.3333 15.4166 20.4005 15.4166 19.25C15.4166 18.0994 14.4838 17.1666 13.3332 17.1666C12.1826 17.1666 11.2499 18.0994 11.2499 19.25C11.2499 20.4005 12.1826 21.3333 13.3332 21.3333Z" fill="white"/>
</svg>
