<svg width="21" height="23" viewBox="0 0 21 23" fill="none" xmlns="http://www.w3.org/2000/svg">
<path d="M17.7917 21.9166H3.20833C2.0625 21.9166 1.125 20.9791 1.125 19.8333V5.24996C1.125 4.10413 2.0625 3.16663 3.20833 3.16663H17.7917C18.9375 3.16663 19.875 4.10413 19.875 5.24996V19.8333C19.875 20.9791 18.9375 21.9166 17.7917 21.9166Z" stroke="white" stroke-opacity="0.87" stroke-width="2" stroke-linecap="round" stroke-linejoin="round"/>
<path d="M14.6667 1.08331V3.16665" stroke="white" stroke-opacity="0.87" stroke-width="2" stroke-linecap="round" stroke-linejoin="round"/>
<path d="M6.33331 1.08331V3.16665" stroke="white" stroke-opacity="0.87" stroke-width="2" stroke-linecap="round" stroke-linejoin="round"/>
<path d="M10.5 13.5833C12.2259 13.5833 13.625 12.1842 13.625 10.4583C13.625 8.73242 12.2259 7.33331 10.5 7.33331C8.77411 7.33331 7.375 8.73242 7.375 10.4583C7.375 12.1842 8.77411 13.5833 10.5 13.5833Z" stroke="white" stroke-opacity="0.87" stroke-width="2" stroke-linecap="round" stroke-linejoin="round"/>
<path d="M15.7084 18.2708C14.25 17.2291 12.4792 16.7083 10.5 16.7083C8.52085 16.7083 6.75002 17.3333 5.29169 18.2708" stroke="white" stroke-opacity="0.87" stroke-width="2" stroke-linecap="round" stroke-linejoin="round"/>
</svg>
