<svg width="78" height="78" viewBox="0 0 78 78" fill="none" xmlns="http://www.w3.org/2000/svg">
<path d="M35.1 25.3501C35.0995 23.1891 34.381 21.0895 33.0575 19.3812C31.734 17.6729 29.8804 16.4527 27.7881 15.9123C25.6957 15.3719 23.4831 15.542 21.4979 16.3958C19.5127 17.2495 17.8674 18.7387 16.8205 20.6291C15.7736 22.5196 15.3844 24.7044 15.7141 26.8401C16.0438 28.9758 17.0737 30.9414 18.642 32.4282C20.2103 33.915 22.228 34.8386 24.3783 35.054C26.5285 35.2694 28.6894 34.7643 30.5214 33.6181C29.8933 37.3931 28.6384 41.0366 26.8086 44.3977C24.2775 48.9997 21.0522 52.2406 18.1194 55.1695C17.7532 55.5356 17.5475 56.0323 17.5475 56.5501C17.5475 57.0679 17.7532 57.5645 18.1194 57.9307C18.4856 58.2968 18.9822 58.5025 19.5 58.5025C20.0178 58.5025 20.5144 58.2968 20.8806 57.9307L20.9235 57.8839C23.8368 54.9706 27.4131 51.3943 30.2289 46.2775C33.072 41.0983 35.1 34.4371 35.1 25.3501ZM57.8214 33.6181C55.9894 34.7643 53.8285 35.2694 51.6783 35.054C49.528 34.8386 47.5103 33.915 45.942 32.4282C44.3737 30.9414 43.3438 28.9758 43.0141 26.8401C42.6844 24.7044 43.0736 22.5196 44.1205 20.6291C45.1674 18.7387 46.8127 17.2495 48.7979 16.3958C50.7831 15.542 52.9957 15.3719 55.0881 15.9123C57.1804 16.4527 59.034 17.6729 60.3575 19.3812C61.681 21.0895 62.3995 23.1891 62.4 25.3501C62.4 34.4371 60.372 41.0983 57.525 46.2775C54.7131 51.3943 51.1368 54.9745 48.2274 57.8839L48.1806 57.9307C47.8144 58.2968 47.3178 58.5025 46.8 58.5025C46.2822 58.5025 45.7856 58.2968 45.4194 57.9307C45.0532 57.5645 44.8475 57.0679 44.8475 56.5501C44.8475 56.0323 45.0532 55.5356 45.4194 55.1695C48.3522 52.2406 51.5775 49.0036 54.1086 44.3977C55.939 41.0354 57.1939 37.3906 57.8214 33.6142V33.6181Z" fill="url(#paint0_linear_98_1332)"/>
<defs>
<linearGradient id="paint0_linear_98_1332" x1="13.7884" y1="7.53419" x2="45.1173" y2="14.0824" gradientUnits="userSpaceOnUse">
<stop stop-color="#712EFF"/>
<stop offset="1" stop-color="#8559E2"/>
</linearGradient>
</defs>
</svg>
