<svg width="15" height="13" viewBox="0 0 15 13" fill="none" xmlns="http://www.w3.org/2000/svg">
<path d="M14.0475 4.57767L9.85058 3.98457L7.97444 0.28611C7.9232 0.184848 7.8389 0.102875 7.73476 0.0530477C7.47359 -0.0723237 7.15621 0.0321525 7.02563 0.28611L5.14949 3.98457L0.952561 4.57767C0.836853 4.59374 0.731061 4.64679 0.650065 4.72715C0.552145 4.82502 0.498187 4.95668 0.500047 5.09321C0.501906 5.22974 0.559432 5.35996 0.659983 5.45527L3.69652 8.33399L2.97912 12.3989C2.9623 12.4935 2.97306 12.5907 3.01018 12.6796C3.04731 12.7686 3.10931 12.8456 3.18916 12.902C3.26901 12.9584 3.36352 12.9919 3.46196 12.9987C3.5604 13.0055 3.65883 12.9854 3.74611 12.9406L7.50003 11.0214L11.254 12.9406C11.3564 12.9936 11.4755 13.0113 11.5895 12.992C11.8771 12.9438 12.0705 12.6786 12.0209 12.3989L11.3036 8.33399L14.3401 5.45527C14.4227 5.37651 14.4773 5.27364 14.4938 5.16113C14.5384 4.87985 14.3368 4.61946 14.0475 4.57767Z" fill="#FFC700"/>
</svg>
