<svg width="30" height="30" viewBox="0 0 30 30" fill="none" xmlns="http://www.w3.org/2000/svg">
<path d="M21.875 6.0525C19.97 5.42125 17.6825 5 15 5C12.3188 5 10.03 5.42125 8.125 6.0525H21.875ZM21.875 6.0525C25.6512 7.3025 27.9187 9.3775 28.75 10.625L25.625 13.75L21.875 11.25V6.0525ZM8.125 6.0525C4.34875 7.3025 2.08125 9.3775 1.25 10.625L4.375 13.75L8.125 11.25V6.0525Z" stroke="#E9E9E9" stroke-width="2" stroke-linecap="round" stroke-linejoin="round"/>
<path fill-rule="evenodd" clip-rule="evenodd" d="M12.5 7.5C12.8315 7.5 13.1495 7.6317 13.3839 7.86612C13.6183 8.10054 13.75 8.41848 13.75 8.75V11.25H16.25V8.75C16.25 8.41848 16.3817 8.10054 16.6161 7.86612C16.8505 7.6317 17.1685 7.5 17.5 7.5C17.8315 7.5 18.1495 7.6317 18.3839 7.86612C18.6183 8.10054 18.75 8.41848 18.75 8.75V11.9825L25.1513 18.3837C25.8546 19.0868 26.2498 20.0405 26.25 21.035V22.5C26.25 23.4946 25.8549 24.4484 25.1517 25.1517C24.4484 25.8549 23.4946 26.25 22.5 26.25H7.5C6.50544 26.25 5.55161 25.8549 4.84835 25.1517C4.14509 24.4484 3.75 23.4946 3.75 22.5V21.035C3.75054 20.041 4.14575 19.0878 4.84875 18.385L11.25 11.9812V8.75C11.25 8.41848 11.3817 8.10054 11.6161 7.86612C11.8505 7.6317 12.1685 7.5 12.5 7.5ZM15 21.25C15.663 21.25 16.2989 20.9866 16.7678 20.5178C17.2366 20.0489 17.5 19.413 17.5 18.75C17.5 18.087 17.2366 17.4511 16.7678 16.9822C16.2989 16.5134 15.663 16.25 15 16.25C14.337 16.25 13.7011 16.5134 13.2322 16.9822C12.7634 17.4511 12.5 18.087 12.5 18.75C12.5 19.413 12.7634 20.0489 13.2322 20.5178C13.7011 20.9866 14.337 21.25 15 21.25Z" fill="#E9E9E9"/>
</svg>
